<?xml version="1.0" encoding="UTF-8"?>
<svg version="1.1" xmlns="http://www.w3.org/2000/svg" width="512" height="512">
<path d="M0 0 C3.25751801 1.58347512 5.94119568 3.7295725 8.75 6 C9.95958374 6.93428833 9.95958374 6.93428833 11.19360352 7.88745117 C12.91522331 9.21892744 14.6299966 10.5592959 16.33837891 11.90771484 C19.93948087 14.73852055 23.59039316 17.50137661 27.24121094 20.26757812 C29.80068448 22.20873625 32.3524277 24.15959408 34.90234375 26.11328125 C35.73048584 26.73211182 36.55862793 27.35094238 37.41186523 27.98852539 C39.23271578 29.40367374 40.99714248 30.89295405 42.71508789 32.43139648 C50.98606571 39.49725685 58.11262499 40.65310695 68.5625 40.4375 C69.31389252 40.43226318 70.06528503 40.42702637 70.83944702 40.42163086 C84.55159564 40.22479791 92.78802492 36.71115692 102.74560547 27.09228516 C106.84989108 23.28313119 111.39107403 20.03190193 115.875 16.6875 C117.63914071 15.3491311 119.40219855 14.00933341 121.1640625 12.66796875 C122.40397949 11.72896729 122.40397949 11.72896729 123.66894531 10.77099609 C125.13116873 9.6600861 126.58948871 8.54399905 128.04199219 7.42041016 C139.44884799 -1.37925004 139.44884799 -1.37925004 146.05859375 -0.63671875 C149.58624205 0.52023633 151.47048079 2.28076685 154 5 C154.99123554 7.97370661 155.13023788 9.92868549 155.14044189 13.03222656 C155.14615204 14.07222305 155.15186218 15.11221954 155.15774536 16.18373108 C155.15886322 17.32450607 155.15998108 18.46528107 155.16113281 19.640625 C155.16609772 20.84259018 155.17106262 22.04455536 155.17617798 23.28294373 C155.18829041 26.58300244 155.19574676 29.88299773 155.20018864 33.18307114 C155.20312273 35.24840313 155.20722836 37.31372962 155.21169281 39.37905884 C155.22537151 45.85090897 155.23503408 52.32274644 155.2388947 58.79461002 C155.24336452 66.24575684 155.26086051 73.69671921 155.2898953 81.14780998 C155.31159191 86.91784979 155.32160336 92.68783804 155.32293582 98.45791817 C155.32397895 101.89840922 155.32977992 105.338727 155.34775543 108.7791748 C155.36489469 112.62766276 155.36291562 116.47570765 155.35644531 120.32421875 C155.3656601 121.4487999 155.37487488 122.57338104 155.3843689 123.73204041 C155.28310508 143.05246211 146.37438133 156.99650958 132.93433857 170.29972172 C131 172 131 172 128.73987865 173.42530727 C125.20205475 175.70308907 122.51422574 177.50881991 121.10926247 181.58300972 C120.7073397 184.75990361 120.58967202 187.83889055 120.56567383 191.04125977 C120.50194077 192.84666701 120.50194077 192.84666701 120.43692017 194.68854713 C120.33344393 197.9968257 120.27154578 201.30031404 120.23386216 204.6096437 C120.20686389 206.70439127 120.16599352 208.79842185 120.12061119 210.89284706 C119.9111251 220.66915436 119.83982518 230.44273604 119.81962585 240.22108364 C119.81251898 242.55626349 119.79884338 244.89131252 119.78295898 247.22644806 C119.44479631 298.59058399 124.63949498 343.67821093 147.01293945 390.71347046 C148 393 148 393 148 395 C148.78890625 395.23589844 149.5778125 395.47179687 150.390625 395.71484375 C163.70098881 400.45413995 179.63715398 407.25810211 186.5625 420.3125 C189.13882502 426.92133374 189.67496111 432.90815513 189 440 C186.84000786 444.65229076 183.76673076 447.99635338 179 450 C174.98482954 450.59007716 171.00454044 450.53955579 166.95228577 450.50793457 C165.72859344 450.51417453 164.50490112 450.5204145 163.24412721 450.52684355 C159.85445485 450.54002856 156.4656703 450.53529648 153.07605207 450.52289867 C149.41731884 450.51384461 145.75866292 450.52782023 142.09994507 450.53881836 C134.93278797 450.55660922 127.7657984 450.55275972 120.59863473 450.5411678 C114.76841929 450.53212962 108.93825076 450.53091116 103.10803032 450.53526306 C102.27779037 450.53587599 101.44755042 450.53648893 100.59215168 450.53712043 C98.90534984 450.53839938 97.21854801 450.53969623 95.5317462 450.5410108 C79.70935003 450.5524199 63.88704652 450.53930104 48.06466555 450.51780933 C34.51075585 450.49996773 20.95698334 450.50301752 7.40307617 450.52148438 C-8.34923054 450.54293658 -24.1014558 450.55129 -39.85377508 450.53903532 C-41.53707952 450.5377612 -43.22038397 450.53650372 -44.90368843 450.53526306 C-45.73180501 450.53464596 -46.5599216 450.53402886 -47.41313262 450.53339306 C-53.22659772 450.52995095 -59.04001088 450.53574445 -64.85346794 450.54518127 C-71.95293274 450.55645238 -79.05222087 450.5532559 -86.15166568 450.5320583 C-89.76876534 450.52161147 -93.3855715 450.5173153 -97.00266838 450.53065491 C-114.16371048 450.58871699 -129.73798641 450.49121758 -145.25 442.3125 C-145.91128906 441.9714624 -146.57257813 441.6304248 -147.25390625 441.27905273 C-167.50426433 430.44855176 -178.94293393 412.49990748 -185.46264648 391.12719727 C-186.80977612 385.79437557 -187.16923651 380.59393845 -187.203125 375.11328125 C-187.21013931 374.35155106 -187.21715363 373.58982086 -187.22438049 372.80500793 C-187.24200412 370.30744563 -187.24825026 367.81012256 -187.25 365.3125 C-187.25067474 364.44953308 -187.25134949 363.58656616 -187.25204468 362.69744873 C-187.16833515 294.68619894 -171.55793152 225.42956002 -148.3125 161.75 C-147.79610962 160.3124939 -147.79610962 160.3124939 -147.26928711 158.84594727 C-143.88720261 149.86896758 -139.24048159 141.34272982 -131 136 C-123.64994176 133.00553183 -115.77338368 133.01432676 -108.33984375 135.7578125 C-101.42741546 139.42751567 -96.06612733 144.81731283 -93 152 C-89.97428891 162.45593832 -94.73541427 172.52788013 -98.6875 182.0625 C-119.44920396 232.4041027 -127.86053028 290.80554733 -131 345 C-130.69449219 343.96746094 -130.38898438 342.93492187 -130.07421875 341.87109375 C-118.78226396 305.20525185 -96.2235591 273.50137812 -71.44726562 244.68994141 C-69.93994299 242.92987271 -68.44560049 241.15938897 -66.953125 239.38671875 C-61.92587744 233.43543266 -56.87476065 227.64298521 -51.23046875 222.2578125 C-49.30539334 220.30913722 -47.52254208 218.31842594 -45.734375 216.24609375 C-42.01621681 211.96213968 -38.0839181 207.93565049 -34.0625 203.9375 C-33.39798828 203.26912109 -32.73347656 202.60074219 -32.04882812 201.91210938 C-28.08999506 197.96095591 -24.01312979 194.21446069 -19.77905273 190.56079102 C-17.58361679 188.63470044 -15.53320161 186.59576166 -13.5 184.5 C-10.06347414 181.01607378 -6.50942849 177.75958965 -2.796875 174.57421875 C-0.41401353 172.48662489 1.79526399 170.27363401 4 168 C3.5153125 167.56171875 3.030625 167.1234375 2.53125 166.671875 C-9.90497037 154.90529727 -16.48297266 141.40718169 -17.09525108 124.34578896 C-17.13622666 121.37181951 -17.14655611 118.39930109 -17.14526367 115.42504883 C-17.14862228 114.30195816 -17.1519809 113.17886749 -17.15544128 112.02174377 C-17.16489042 108.33349483 -17.16689092 104.64529152 -17.16796875 100.95703125 C-17.17118398 98.3835193 -17.17454825 95.81000754 -17.17805481 93.23649597 C-17.18402983 87.85435483 -17.18593922 82.47223168 -17.18530273 77.09008789 C-17.18470074 70.87849622 -17.19528445 64.66699104 -17.2110464 58.45542127 C-17.22571215 52.46091516 -17.22929053 46.46645599 -17.22869301 40.47192955 C-17.22987299 37.92862277 -17.23429577 35.38531534 -17.24202538 32.84202003 C-17.25181518 29.29019568 -17.24895177 25.73859549 -17.24291992 22.18676758 C-17.24853943 21.13779297 -17.25415894 20.08881836 -17.25994873 19.00805664 C-17.2104925 7.55588195 -17.2104925 7.55588195 -13 2.6875 C-8.9880632 -0.69757167 -5.07802242 -0.82562953 0 0 Z " fill="#000000" transform="translate(255,28)"/>
</svg>
